<?xml version="1.0" encoding="utf-8"?>
<!-- Generator: Adobe Illustrator 24.0.1, SVG Export Plug-In . SVG Version: 6.00 Build 0)  -->
<svg version="1.1" id="Layer_1" xmlns="http://www.w3.org/2000/svg" xmlns:xlink="http://www.w3.org/1999/xlink" x="0px" y="0px"
	 viewBox="0 0 592.6 592.7" style="enable-background:new 0 0 592.6 592.7;" xml:space="preserve">
<style type="text/css">
	.st0{fill:#333333;}
</style>
<g>
	<path class="st0" d="M296.3,0.1C132.7,0.1,0,132.8,0,296.4s132.7,296.3,296.3,296.3S592.6,460,592.6,296.4S459.9,0.1,296.3,0.1z
		 M296.3,569.1C145.6,569.1,23.6,447,23.6,296.4s122-272.7,272.7-272.7S569,145.7,569,296.4S447,569.1,296.3,569.1z"/>
</g>
<g>
	<path class="st0" d="M180.7,286c-18.7-1.2-34.4,14.6-33.2,33.9c1,15.8,13.6,28.6,29,29.6c18.7,1.2,34.4-14.6,33.2-33.9
		C208.8,300,196.2,287.1,180.7,286z M194.2,319.6c-0.9,7-6.6,12.7-13.5,13.7c-10.2,1.4-18.8-7.4-17.5-17.8
		c0.9-7.1,6.6-12.7,13.5-13.7C186.8,300.6,195.3,309.3,194.2,319.6z"/>
	<path class="st0" d="M295.2,239.3h23c1.1,0,1.9,0.9,1.9,1.9v23.4c0,3.4,2.7,6,5.8,6h3.7c3.3,0,5.8-2.7,5.8-6v-25.3v-9.7
		c0-3.4-2.7-6-5.8-6h-34.4c-3-0.1-5.7,2.6-5.7,6v3.7C289.4,236.6,292.1,239.3,295.2,239.3z"/>
	<path class="st0" d="M329.6,364.9h-3.7c-3.2,0-5.8,2.6-5.8,6v23.4c0,1-0.8,1.9-1.9,1.9h-23c-3.2,0-5.8,2.6-5.8,6v3.7
		c0,3.4,2.7,6,5.7,6.1h34.4c3.2,0,5.8-2.6,5.8-6v-9.8v-25.3C335.4,367.7,332.9,364.9,329.6,364.9z"/>
	<path class="st0" d="M422.5,396.2h-22.9c-1.1,0-1.9-0.9-1.9-1.9v-23.4c0-3.4-2.7-6-5.8-6h-3.7c-3.3,0-5.8,2.7-5.8,6v25.3v9.8
		c0,3.4,2.7,6,5.8,6h34.4c3.2-0.1,5.7-2.7,5.7-6.1v-3.7C428.4,398.8,425.7,396.2,422.5,396.2z"/>
	<path class="st0" d="M388,270.6h3.7c3.2,0,5.8-2.6,5.8-6v-23.4c0-1,0.8-1.9,1.9-1.9h23c3.2,0,5.8-2.6,5.8-6v-3.7
		c0-3.4-2.7-6.1-5.8-6H388c-3.2,0-5.8,2.6-5.8,6v9.7v25.3C382.2,267.8,384.8,270.6,388,270.6z"/>
	<path class="st0" d="M356.8,270.7h4.1c3.2,0,5.7-2.6,5.7-5.9V198c0-3.2-2.6-5.9-5.7-5.9h-4.1c-3.2,0-5.7,2.6-5.7,5.9v66.8
		C351,268.1,353.7,270.7,356.8,270.7z"/>
	<path class="st0" d="M360.8,364.7h-4.1c-3.2,0-5.7,2.6-5.7,5.9v66.8c0,3.2,2.6,5.9,5.7,5.9h4.1c3.2,0,5.7-2.6,5.7-5.9v-66.8
		C366.7,367.3,364,364.7,360.8,364.7z"/>
	<path class="st0" d="M463.2,316.3l-4.6-5.2l-17.1-19.3l-3.5-4.1c-0.8-0.8-1.6-1.2-2.9-1.4H298.6c-0.9,0-1.6-0.5-1.9-1.4
		c-12.8-35.5-45.8-61-84.9-61.9c-51.1-1.1-93.8,41-94.6,93c-0.7,52.8,41,95.7,92.5,95.7c39.6,0,73.4-25.3,86.5-61
		c0.4-1.1,1.4-1.9,2.6-1.9l71.3-0.1c0.8,0,1.6-0.3,2.2-0.8l14.6-12c2-1.6,4.9-1.5,6.7,0.4l9.6,10.6c1.5,1.5,2.8,1.7,5.3-0.5
		l11.8-11.3c1.1-1,2.8-0.9,3.8,0.2c1.5,1.7,3.5,3.9,3.5,3.9l3.2,3.6l2.8,3.1c2.1,2.1,2.4,1.9,4,0.5c4.6-4.6,21.3-23.8,25.5-28.5
		C463.7,317.6,463.7,316.9,463.2,316.3z M446.5,318.3l-9.8,11.4c-0.9,1-2.4,1-3.5,0.1c0,0-5.1-5.5-8.4-8.9c-1.5-1.6-3.8-1.9-6.1-0.1
		l-11.2,10.6c-1.6,1.5-3,1-4.1-0.1l-10-10c-1.9-1.9-5-2.1-7-0.3l-14.5,11.9c-0.4,0.3-0.9,0.5-1.4,0.5H285
		c-7.2,36.3-38.9,63.5-76.8,62.7c-41.2-0.8-74.7-35-75.6-77.1c-0.8-44.6,34.9-80.7,78.4-79.9c36.4,0.8,67,27.7,74,63h147.4
		c1,0,1.9,0.4,2.4,1.1l11.4,12.8C447,316.9,447,317.6,446.5,318.3z"/>
</g>
<g>
	<circle class="st0" cx="144.4" cy="189.9" r="6.2"/>
	<path class="st0" d="M197.3,181.2l-8-25.3h-11.7l-8,25.3l-1.9,6l-2.5,7.8h8.1l2.5-7.8h15.2l2.5,7.8h8.4l-2.5-7.8L197.3,181.2z
		 M177.6,181.2l5.7-17.8l5.7,17.8H177.6z"/>
	<polygon class="st0" points="208.8,162 218.3,162 218.3,188.9 208.8,188.9 208.8,195 236.2,195 236.2,188.9 226.7,188.9 226.7,162 
		236.2,162 236.2,155.9 208.8,155.9 	"/>
	<polygon class="st0" points="278.6,190.4 278.2,183.4 276.6,155.9 267.2,155.9 266.9,156.7 262.5,169.8 261.4,173.1 260.1,169.2 
		256.5,157.6 255.9,155.9 246.5,155.9 245,183.4 244.6,190.4 244.4,195 251.3,195 251.4,190.4 251.6,183.4 252.2,164.1 253,166.4 
		258.1,182.7 258.1,182.7 258.3,183.4 263.9,183.4 264.3,182.3 269.9,166 269.9,166 270.4,164.4 271.1,183.4 271.4,190.4 
		271.5,194.5 271.5,195 278.8,195 	"/>
</g>
</svg>
