<?xml version="1.0" encoding="utf-8"?>
<!-- Generator: Adobe Illustrator 24.0.1, SVG Export Plug-In . SVG Version: 6.00 Build 0)  -->
<svg version="1.1" id="Layer_1" xmlns="http://www.w3.org/2000/svg" xmlns:xlink="http://www.w3.org/1999/xlink" x="0px" y="0px"
	 viewBox="0 0 592.6 592.6" style="enable-background:new 0 0 592.6 592.6;" xml:space="preserve">
<style type="text/css">
	.st0{fill:none;}
	.st1{fill:#089F00;}
	.st2{font-family:'Consolas-Bold';}
	.st3{font-size:40px;}
	.st4{fill:#333333;}
	.st5{fill:url(#SVGID_1_);}
</style>
<g>
	<rect x="49" y="176" class="st0" width="117" height="240.6"/>
	<text transform="matrix(1 0 0 1 49 203.5996)"><tspan x="0" y="0" class="st1 st2 st3">Lorem </tspan><tspan x="0" y="40" class="st1 st2 st3">ipsum </tspan><tspan x="0" y="80" class="st1 st2 st3">dolor </tspan><tspan x="0" y="120" class="st1 st2 st3">sit </tspan><tspan x="0" y="160" class="st1 st2 st3">amet, </tspan><tspan x="0" y="200" class="st1 st2 st3">con</tspan><tspan x="66" y="200" class="st1 st2 st3">-</tspan></text>
</g>
<path class="st4" d="M562.9,149.3h-64.7c-2.5,0-4.6-2.1-4.6-4.6v-21.4c0-5.5-0.8-8.9-2.7-12.4c-2.7-4.8-5.9-7.3-9.5-9.7
	c-2.8-1.9-6-3.3-9.4-3.9c-0.3-0.1-0.6-0.1-0.9-0.1H276.8c-4.6,0-9.2-1.1-13.2-3.3l-87.9-47.1c-1.3-0.5-2.3-1-3.3-1.3
	c-1.1-0.3-2.2-0.5-3.8-0.5c-3.1,0-135.9,0-135.9,0h-4.9c-1.2,0-2.4,0.1-3.5,0.3c-3.8,0.7-7.3,2-10.4,3.9c-4,2.2-7.3,5.2-9.7,8.8
	c-1.6,2.4-2.8,5-3.6,7.8C0.1,66.9,0,68.2,0,69.4v369c0,0.5,0,0.9,0,1.4c0.1,2.5,0.2,2.8,0.6,6.7c0,0,0.7,4.8,2.7,8.2
	c2.1,4.1,10.3,10.3,17.8,11.7c3.2,0.6,12,0.7,12,0.7h431.6c1.2,0,6.4,0.3,10.9-0.7c4.1-0.9,7.9-2.6,11.2-5.7c0.5-0.5,1-1,1.4-1.6
	c2.6-3.7,2.3-3.8,3.7-6.7c0.3-0.6,0.6-1.3,0.8-1.9L581,206.1c0.3-0.8,0.5-1.5,0.7-2.3l9.2-26.8c0-0.1,0.1-0.2,0.1-0.3
	C598.5,150,577,149.3,562.9,149.3z M477.1,144.4c0,2.7-2.2,4.9-4.9,4.9H178.6c-0.3,0-0.6,0-0.9,0c-19.2,2.1-22.6,7.6-28.7,24.7
	c0,0-92.8,264.6-97.9,272.4c-3.7,5.6-6.4,6.3-11.6,7H23.9c-1.6,0-3.2-0.4-4.5-1.2l0,0c-3.5-2.2-6-5.8-7.1-9.2
	c-0.9-2.5-1.2-5.2-1.2-7.9V73.5c0-3.7,1.3-7.3,3.9-10c0.6-0.6,1.2-1.2,1.8-1.7c2.6-2.1,5.9-3.1,9.2-3.1h134.7
	c5.9,0,11.6,1.4,16.8,4.2l79.6,42.6c6.6,3.5,13.9,5.4,21.4,5.4h186c1.2,0,2.5,0.3,3.6,0.8c3.8,1.9,6.8,5.2,8.5,9.2
	c0.4,0.9,0.6,1.9,0.6,3v20.5H477.1z"/>
<g>
	
		<linearGradient id="SVGID_1_" gradientUnits="userSpaceOnUse" x1="415.2448" y1="339.2689" x2="233.4515" y2="24.3938" gradientTransform="matrix(1 0 0 -1 0 594)">
		<stop  offset="5.128811e-04" style="stop-color:#F9AE00"/>
		<stop  offset="0.1318" style="stop-color:#F98E00"/>
		<stop  offset="0.2385" style="stop-color:#F98600"/>
		<stop  offset="0.3815" style="stop-color:#E36E00"/>
		<stop  offset="0.5087" style="stop-color:#D15800"/>
		<stop  offset="0.6733" style="stop-color:#BE3E00"/>
		<stop  offset="0.8169" style="stop-color:#A60300"/>
		<stop  offset="0.959" style="stop-color:#770000"/>
	</linearGradient>
	<path class="st5" d="M410.5,349.3H251.1v-49.8c0-0.3,0-0.7,0-1c0.5-31.1,26-54.3,57.1-56.2c16.1-1,51.8,8.3,57.1,51.3
		c0,0,0.5,15.1,20,13.2c8.4-0.8,12.7-6.8,12.7-19.9c-0.1-45.1-44-79.2-90.3-79.2c-50.3,0-91.1,40.8-91.1,91.1c0,2.3,0.1,4.5,0.2,6.7
		v43.8h-10.7c-22.1,0-40.1,17.9-40.1,40.1v118.1c0,22.1,17.9,40.1,40.1,40.1h204.2c22.1,0,40.1-17.9,40.1-40.1V389.4
		C450.6,367.3,432.6,349.3,410.5,349.3z"/>
</g>
<g>
	<circle class="st4" cx="42.9" cy="110.5" r="5.4"/>
	<path class="st4" d="M89,102.9l-7-22.1H71.8l-7,22.1l-1.7,5.3L61,115h7l2.2-6.8h13.2l2.2,6.8h7.3l-2.2-6.8L89,102.9z M71.8,102.9
		l4.9-15.6l4.9,15.6H71.8z"/>
	<polygon class="st4" points="99,86.2 107.3,86.2 107.3,109.6 99,109.6 99,115 122.9,115 122.9,109.6 114.7,109.6 114.7,86.2 
		122.9,86.2 122.9,80.9 99,80.9 	"/>
	<polygon class="st4" points="159.8,111 159.5,104.8 158.1,80.9 149.9,80.9 149.7,81.6 145.8,93 144.9,95.9 143.8,92.5 140.6,82.3 
		140.1,80.9 131.9,80.9 130.6,104.8 130.3,111 130,115 136.1,115 136.2,111 136.4,104.8 136.9,88 137.5,90.1 142,104.2 142,104.2 
		142.2,104.8 147.1,104.8 147.4,103.9 152.3,89.6 152.3,89.6 152.7,88.3 153.3,104.8 153.6,111 153.7,114.5 153.7,115 160.1,115 	
		"/>
</g>
</svg>
