<?xml version="1.0" encoding="utf-8"?>
<!-- Generator: Adobe Illustrator 24.0.1, SVG Export Plug-In . SVG Version: 6.00 Build 0)  -->
<svg version="1.1" id="Layer_1" xmlns="http://www.w3.org/2000/svg" xmlns:xlink="http://www.w3.org/1999/xlink" x="0px" y="0px"
	 viewBox="0 0 592.6 592.6" style="enable-background:new 0 0 592.6 592.6;" xml:space="preserve">
<style type="text/css">
	.st0{fill:url(#SVGID_1_);}
	.st1{fill:url(#SVGID_2_);}
	.st2{fill:url(#SVGID_3_);}
	.st3{fill:url(#SVGID_4_);}
	.st4{fill:url(#SVGID_5_);}
	.st5{fill:url(#SVGID_6_);}
	.st6{fill:url(#SVGID_7_);}
	.st7{fill:url(#SVGID_8_);}
	.st8{fill:url(#SVGID_9_);}
</style>
<linearGradient id="SVGID_1_" gradientUnits="userSpaceOnUse" x1="160.25" y1="334.0738" x2="160.25" y2="258.7262">
	<stop  offset="0" style="stop-color:#860F0F"/>
	<stop  offset="0.4559" style="stop-color:#E65507"/>
	<stop  offset="0.8974" style="stop-color:#FF8800"/>
	<stop  offset="1" style="stop-color:#FFA951"/>
</linearGradient>
<path class="st0" d="M162.7,258.8c-22.2-1.4-40.7,17.3-39.3,40.1c1.2,18.7,16.1,33.9,34.4,35.1c22.2,1.4,40.7-17.3,39.3-40.1
	C196,275.3,181.1,260,162.7,258.8z M178.7,298.6c-1.1,8.3-7.8,15.1-16,16.2c-12.1,1.6-22.3-8.8-20.7-21.1c1.1-8.4,7.8-15.1,16-16.2
	C170,276,180.1,286.3,178.7,298.6z"/>
<linearGradient id="SVGID_2_" gradientUnits="userSpaceOnUse" x1="318.75" y1="240.5" x2="318.75" y2="184.7977">
	<stop  offset="0" style="stop-color:#860F0F"/>
	<stop  offset="0.4559" style="stop-color:#E65507"/>
	<stop  offset="0.8974" style="stop-color:#FF8800"/>
	<stop  offset="1" style="stop-color:#FFA951"/>
</linearGradient>
<path class="st1" d="M298.4,203.4h27.2c1.3,0,2.2,1.1,2.2,2.3v27.7c0,4,3.2,7.1,6.9,7.1h4.4c3.9,0,6.9-3.2,6.9-7.1v-30v-11.5
	c0-4-3.2-7.1-6.9-7.1h-40.8c-3.6-0.1-6.8,3.1-6.8,7.1v4.4C291.5,200.3,294.7,203.4,298.4,203.4z"/>
<linearGradient id="SVGID_3_" gradientUnits="userSpaceOnUse" x1="318.75" y1="408" x2="318.75" y2="352.2">
	<stop  offset="0" style="stop-color:#860F0F"/>
	<stop  offset="0.4559" style="stop-color:#E65507"/>
	<stop  offset="0.8974" style="stop-color:#FF8800"/>
	<stop  offset="1" style="stop-color:#FFA951"/>
</linearGradient>
<path class="st2" d="M339.1,352.2h-4.4c-3.8,0-6.9,3.1-6.9,7.1V387c0,1.2-0.9,2.3-2.2,2.3h-27.2c-3.8,0-6.9,3.1-6.9,7.1v4.4
	c0,4,3.2,7.1,6.8,7.2h40.8c3.8,0,6.9-3.1,6.9-7.1v-11.6v-30C346,355.5,343,352.2,339.1,352.2z"/>
<linearGradient id="SVGID_4_" gradientUnits="userSpaceOnUse" x1="428.85" y1="408" x2="428.85" y2="352.2">
	<stop  offset="0" style="stop-color:#860F0F"/>
	<stop  offset="0.4559" style="stop-color:#E65507"/>
	<stop  offset="0.8974" style="stop-color:#FF8800"/>
	<stop  offset="1" style="stop-color:#FFA951"/>
</linearGradient>
<path class="st3" d="M449.1,389.3H422c-1.3,0-2.2-1.1-2.2-2.3v-27.7c0-4-3.2-7.1-6.9-7.1h-4.4c-3.9,0-6.9,3.2-6.9,7.1v30v11.6
	c0,4,3.2,7.1,6.9,7.1h40.8c3.8-0.1,6.8-3.2,6.8-7.2v-4.4C456.1,392.4,452.9,389.3,449.1,389.3z"/>
<linearGradient id="SVGID_5_" gradientUnits="userSpaceOnUse" x1="428.65" y1="240.5" x2="428.65" y2="184.7977">
	<stop  offset="0" style="stop-color:#860F0F"/>
	<stop  offset="0.4559" style="stop-color:#E65507"/>
	<stop  offset="0.8974" style="stop-color:#FF8800"/>
	<stop  offset="1" style="stop-color:#FFA951"/>
</linearGradient>
<path class="st4" d="M408.3,240.5h4.4c3.8,0,6.9-3.1,6.9-7.1v-27.7c0-1.2,0.9-2.3,2.2-2.3H449c3.8,0,6.9-3.1,6.9-7.1v-4.4
	c0-4-3.2-7.2-6.9-7.1h-40.7c-3.8,0-6.9,3.1-6.9,7.1v11.5v30C401.4,237.2,404.5,240.5,408.3,240.5z"/>
<linearGradient id="SVGID_6_" gradientUnits="userSpaceOnUse" x1="373.7" y1="240.6" x2="373.7" y2="147.5">
	<stop  offset="0" style="stop-color:#860F0F"/>
	<stop  offset="0.4559" style="stop-color:#E65507"/>
	<stop  offset="0.8974" style="stop-color:#FF8800"/>
	<stop  offset="1" style="stop-color:#FFA951"/>
</linearGradient>
<path class="st5" d="M371.3,240.6h4.8c3.8,0,6.7-3.1,6.8-7v-79.1c0-3.8-3.1-7-6.8-7h-4.8c-3.8,0-6.8,3.1-6.8,7v79.1
	C364.5,237.5,367.6,240.6,371.3,240.6z"/>
<linearGradient id="SVGID_7_" gradientUnits="userSpaceOnUse" x1="373.7012" y1="445.1" x2="373.7012" y2="352">
	<stop  offset="0" style="stop-color:#860F0F"/>
	<stop  offset="0.4559" style="stop-color:#E65507"/>
	<stop  offset="0.8974" style="stop-color:#FF8800"/>
	<stop  offset="1" style="stop-color:#FFA951"/>
</linearGradient>
<path class="st6" d="M376.1,352h-4.8c-3.8,0-6.8,3.1-6.8,7v79.1c0,3.8,3.1,7,6.8,7h4.8c3.8,0,6.7-3.1,6.8-7V359
	C383,355.1,379.9,352,376.1,352z"/>
<linearGradient id="SVGID_8_" gradientUnits="userSpaceOnUse" x1="296.3" y1="592.6" x2="296.3" y2="-9.094947e-13">
	<stop  offset="1.858442e-07" style="stop-color:#980F0F"/>
	<stop  offset="0.4559" style="stop-color:#E63907"/>
	<stop  offset="0.7456" style="stop-color:#FF8800"/>
	<stop  offset="0.9631" style="stop-color:#FFA951"/>
</linearGradient>
<path class="st7" d="M296.3,0C132.7,0,0,132.7,0,296.3s132.7,296.3,296.3,296.3s296.3-132.7,296.3-296.3S459.9,0,296.3,0z
	 M296.3,569C145.6,569,23.6,446.9,23.6,296.3s122-272.7,272.7-272.7S569,145.6,569,296.3S447,569,296.3,569z"/>
<linearGradient id="SVGID_9_" gradientUnits="userSpaceOnUse" x1="292.7346" y1="407.9916" x2="292.7346" y2="184.3259">
	<stop  offset="0" style="stop-color:#860F0F"/>
	<stop  offset="0.4559" style="stop-color:#E65507"/>
	<stop  offset="0.8974" style="stop-color:#FF8800"/>
	<stop  offset="1" style="stop-color:#FFA951"/>
</linearGradient>
<path class="st8" d="M497.4,294.4l-5.4-6.1l-20.2-22.8l-4.2-4.8c-0.9-1-1.9-1.4-3.4-1.6H302.5c-1.1,0-1.9-0.6-2.2-1.6
	c-15.2-42.1-54.3-72.2-100.5-73.3c-60.5-1.3-111.1,48.5-112,110.2C86.8,357,136.2,408,197.2,408c46.9,0,86.9-30,102.5-72.2
	c0.5-1.3,1.6-2.2,3.1-2.2l84.5-0.1c0.9,0,1.9-0.4,2.6-1l17.3-14.2c2.4-1.9,5.8-1.8,7.9,0.5l11.4,12.6c1.8,1.8,3.3,2,6.3-0.6l14-13.4
	c1.3-1.2,3.3-1.1,4.5,0.2c1.8,2,4.1,4.6,4.1,4.6l3.8,4.3l3.3,3.7c2.5,2.5,2.9,2.3,4.7,0.6c5.5-5.4,25.2-28.2,30.2-33.8
	C498,296.1,498,295.2,497.4,294.4z M477.6,296.8L466,310.4c-1.1,1.2-2.9,1.2-4.1,0.1c0,0-6-6.5-9.9-10.5c-1.8-1.9-4.5-2.2-7.2-0.1
	l-13.3,12.5c-1.9,1.8-3.5,1.2-4.8-0.1L415,300.4c-2.2-2.3-5.9-2.5-8.3-0.4l-17.2,14.1c-0.5,0.4-1.1,0.6-1.6,0.6H286.6
	c-8.5,43-46.1,75.2-91,74.3c-48.8-1-88.5-41.5-89.5-91.3c-0.9-52.8,41.3-95.6,92.9-94.6c43.1,0.9,79.2,32.8,87.6,74.6h174.6
	c1.2,0,2.2,0.5,2.9,1.3l13.5,15.2C478.2,295.2,478.2,296.1,477.6,296.8z"/>
</svg>
