<?xml version="1.0" encoding="utf-8"?>
<!-- Generator: Adobe Illustrator 24.0.1, SVG Export Plug-In . SVG Version: 6.00 Build 0)  -->
<svg version="1.1" id="Layer_4" xmlns="http://www.w3.org/2000/svg" xmlns:xlink="http://www.w3.org/1999/xlink" x="0px" y="0px"
	 viewBox="0 0 50 50" style="enable-background:new 0 0 50 50;" xml:space="preserve">
<style type="text/css">
	.st0{fill:url(#SVGID_1_);}
</style>
<linearGradient id="SVGID_1_" gradientUnits="userSpaceOnUse" x1="22.65" y1="0" x2="22.65" y2="50">
	<stop  offset="0.1436" style="stop-color:#FF9E00"/>
	<stop  offset="0.4477" style="stop-color:#ED5D01"/>
	<stop  offset="0.7513" style="stop-color:#C14102"/>
	<stop  offset="1" style="stop-color:#6D0003"/>
</linearGradient>
<path class="st0" d="M41.8,10.6C41.8,4.7,37,0,31.2,0c-4.9,0-9,3.3-10.2,7.7c0,0.1-0.1,0.5-0.1,0.5c0,0.6,0.5,1.1,1.1,1.1
	c0.5,0,0.9-0.3,1-0.7c0-0.1,0-0.2,0.1-0.2c0.9-3.6,4.2-6.2,8.1-6.2c4.6,0,8.4,3.8,8.4,8.4c0,1.9-0.6,3.6-1.7,5
	c-1.7-1.5-4-2.4-6.5-2.5c-1.3,0-2.6,0.2-3.8,0.7c-1.4-0.8-3-1.3-4.6-1.4c-0.8,0-1.5,0-2.2,0.1c-2,0.3-3.8,1.2-5.3,2.8
	c-3,3-3.5,7.5-1.8,11.1c0,0.1,0,0.2-0.1,0.3L8.3,32c0,0.1-0.1,0.1-0.1,0.2l-0.2,2c0,0.3-0.2,0.5-0.5,0.5H6c-0.2,0-0.3,0.1-0.4,0.4
	v1.7c0,0.2-0.1,0.3-0.3,0.3s-0.6,0-0.6,0H3.8c-0.3,0-0.3,0-0.3,0.3c0,0.7,0.2,3.4,0.3,4.1c0,0.1,0.1,0.2,0.2,0.2h0.7l2.7,0.1H8
	c0.1,0,0.2,0,0.3-0.1l10.2-10.4c0.1-0.1,0.2-0.1,0.2,0c2.5,1.1,5.3,1.2,7.7,0.3c0.4,0.2,0.8,0.4,1.3,0.6c0.1,0,0.2,0.1,0.2,0.3v7.6
	c0,0.1,0,0.2,0.1,0.2l1.3,1.6c0.2,0.2,0.2,0.5,0,0.7l-1.1,1c-0.2,0.2-0.2,0.3,0.1,0.6l1.2,1.3c0.1,0.1,0.1,0.3,0,0.4
	c-0.2,0.2-0.4,0.4-0.4,0.4l-0.4,0.3l-0.3,0.3c-0.2,0.2-0.2,0.3,0,0.4c0.5,0.5,2.5,2.3,3,2.7c0.1,0,0.2,0,0.2,0l0.6-0.5l2-1.8
	l0.4-0.4c0.1-0.1,0.1-0.2,0.1-0.3V32.3c0-0.1,0.1-0.2,0.1-0.2c3.8-1.4,6.5-4.9,6.6-9c0-2.2-0.7-4.3-1.9-6
	C40.9,15.4,41.8,13.1,41.8,10.6z M18.2,29.1l-1.6,1.6l-9.4,9.6c-0.1,0.1-0.2,0.1-0.3,0.1l-1.8-0.1C5,40.3,5,40.2,5,40.1l-0.1-1.6
	c0-0.1,0.1-0.3,0.3-0.3c0,0,0.8,0,1.3,0c0.2,0,0.4-0.1,0.5-0.4v-1.6c-0.1-0.2,0-0.3,0.2-0.3h1.5c0.3,0,0.5-0.2,0.6-0.5l0.2-2
	c0,0,0-0.1,0.1-0.1l4.9-4.9l0.4-0.4l1.2-1.2c-2.3-3.2-1.9-7.7,0.9-10.5c1.2-1.2,2.8-2,4.4-2.2c0.8-0.1,1.6-0.1,2.4,0
	c0.7,0.1,1.5,0.3,2.2,0.6c-0.4,0.3-0.8,0.6-1.2,0.9c-0.6,0.5-1.1,1.1-1.5,1.7C22.1,19,21.5,21,21.5,23c0,2.9,1.3,5.6,3.4,7.4
	C22.4,30.7,20.1,30.3,18.2,29.1z M39.6,23c-0.1,3.9-3,7.1-6.7,7.9v15.7c0,0.1,0,0.2-0.1,0.3l-1.4,1.2c-0.1,0-0.1,0-0.2,0L30,47
	c-0.1-0.1-0.1-0.3,0-0.4c0,0,0.6-0.5,0.9-0.9c0.2-0.2,0.2-0.4,0-0.6l-1.1-1.2c-0.2-0.2-0.1-0.3,0-0.4l1.1-1.1c0.2-0.2,0.2-0.5,0-0.8
	l-1.3-1.5v-9.2c-0.4-0.1-0.9-0.2-1.3-0.4c-0.6-0.2-1.2-0.5-1.8-0.9c-2.2-1.5-3.6-4-3.6-6.9c0-1.6,0.5-3,1.4-4.3
	c0.4-0.6,0.9-1.2,1.5-1.7c0.5-0.5,1.1-0.9,1.8-1.2c0.6-0.3,1.2-0.5,1.8-0.7c0.6-0.1,1.2-0.2,1.8-0.2c2.2,0,4.1,0.7,5.6,2
	c-0.7,0.6-1.5,1.1-2.4,1.5c-0.5-1-1.4-1.7-2.5-1.8c-0.1,0-0.3,0-0.4,0h-0.1c-0.2,0-0.4,0-0.6,0.1c0,0,0,0,0,0
	c-0.2,0-0.3,0.1-0.4,0.1c-0.1,0-0.1,0.1-0.2,0.1c-1.2,0.5-2,1.7-2,3c0,1,0.4,1.9,1.2,2.5c0.1,0.1,0.2,0.2,0.3,0.2
	c0.1,0.1,0.2,0.1,0.3,0.2c0.5,0.3,1,0.4,1.6,0.4c1,0,1.9-0.5,2.5-1.2c0.1-0.1,0.2-0.2,0.2-0.3c0.2-0.3,0.4-0.6,0.5-1
	c1.4-0.5,2.7-1.2,3.7-2.2C39.1,19.8,39.6,21.4,39.6,23z M33.2,19.8c0,1-0.8,1.8-1.8,1.8c-0.2,0-0.3,0-0.5-0.1c0,0,0,0-0.1,0
	c-0.2-0.1-0.5-0.2-0.6-0.4c-0.4-0.3-0.6-0.8-0.6-1.3c0-0.8,0.6-1.5,1.4-1.7c0.1,0,0.3-0.1,0.4-0.1C32.4,18,33.2,18.8,33.2,19.8z"/>
</svg>
